<?xml version="1.0" encoding="utf-8"?>
<!-- Generator: Adobe Illustrator 26.0.1, SVG Export Plug-In . SVG Version: 6.00 Build 0)  -->
<svg version="1.1" id="Layer_1" xmlns="http://www.w3.org/2000/svg" xmlns:xlink="http://www.w3.org/1999/xlink" x="0px" y="0px"
	 viewBox="0 0 493.4 164.5" style="enable-background:new 0 0 493.4 164.5;" xml:space="preserve">
<style type="text/css">
	.st0{fill:#303030;}
	.st1{fill:#FFFFFF;}
	.st2{fill:#FEFEFE;}
	.st3{fill:#3F3EF5;}
	.st4{fill:#508CC6;}
</style>
<g>
	<path class="st0" d="M427.8,124.3H108.7c-4.9,0-8.9-4-8.9-8.9V49c0-4.9,4-8.9,8.9-8.9h319.1c4.9,0,8.9,4,8.9,8.9v66.4
		C436.7,120.3,432.7,124.3,427.8,124.3z"/>
</g>
<g>
	<g>
		<g>
			<path class="st1" d="M239.2,98.6c-1.8-1-3.2-2.5-4.2-4.4c-1-1.9-1.5-4.2-1.5-6.8v-9.4c0-2.6,0.5-4.9,1.5-6.8
				c1-1.9,2.4-3.4,4.2-4.4c1.8-1,4-1.6,6.5-1.6c2.1,0,3.9,0.4,5.6,1.3s3.1,2.1,4.2,3.8s1.9,3.6,2.3,5.9h-5.8
				c-0.3-1.1-0.7-2.1-1.3-2.9c-0.6-0.8-1.3-1.5-2.2-1.9c-0.8-0.4-1.7-0.7-2.7-0.7c-1.3,0-2.4,0.3-3.4,0.9c-1,0.6-1.7,1.4-2.2,2.5
				c-0.5,1.1-0.8,2.4-0.8,3.8v9.4c0,1.5,0.3,2.8,0.8,3.8c0.5,1.1,1.3,1.9,2.2,2.5c1,0.6,2.1,0.9,3.4,0.9c1,0,1.9-0.2,2.7-0.6
				c0.8-0.4,1.6-1,2.2-1.9c0.6-0.8,1.1-1.8,1.3-2.9h5.8c-0.4,2.3-1.2,4.2-2.3,5.9s-2.5,2.9-4.2,3.8c-1.7,0.9-3.5,1.3-5.6,1.3
				C243.2,100.1,241,99.6,239.2,98.6z"/>
			<path class="st1" d="M264.1,65.5h5.6v34.3h-5.6V65.5z M266.8,81.1h11c0.9,0,1.7-0.2,2.4-0.6s1.2-1,1.6-1.8
				c0.4-0.8,0.6-1.7,0.6-2.7c0-1-0.2-1.9-0.6-2.7c-0.4-0.8-0.9-1.4-1.6-1.8c-0.7-0.4-1.5-0.6-2.4-0.6h-11v-5.4h10.8
				c2.1,0,3.9,0.4,5.5,1.3c1.6,0.9,2.8,2.1,3.7,3.7s1.3,3.4,1.3,5.5s-0.4,3.9-1.3,5.5c-0.9,1.6-2.1,2.8-3.7,3.7
				c-1.6,0.9-3.4,1.3-5.5,1.3h-10.8V81.1z"/>
			<path class="st1" d="M294.1,65.5h5.6v34.3h-5.6V65.5z M296.8,81.1h11c0.9,0,1.7-0.2,2.4-0.6s1.2-1,1.6-1.8
				c0.4-0.8,0.6-1.7,0.6-2.7c0-1-0.2-1.9-0.6-2.7c-0.4-0.8-0.9-1.4-1.6-1.8c-0.7-0.4-1.5-0.6-2.4-0.6h-11v-5.4h10.8
				c2.1,0,3.9,0.4,5.5,1.3c1.6,0.9,2.8,2.1,3.7,3.7s1.3,3.4,1.3,5.5s-0.4,3.9-1.3,5.5c-0.9,1.6-2.1,2.8-3.7,3.7
				c-1.6,0.9-3.4,1.3-5.5,1.3h-10.8V81.1z"/>
		</g>
	</g>
</g>
<g>
	<path class="st2" d="M132.5,66.6c-0.5,0.3-1,0.6-1.5,0.9c-1.3,0.8-2.6,1.5-3.9,2.3c-1.3,0.7-2.5,1.5-3.8,2.2
		c-1.4,0.8-2.8,1.6-4.2,2.4c-0.1,0.1-0.2,0.1-0.4,0.2c-0.1,0-0.2-0.1-0.3-0.3c-0.4-0.7-0.9-1.3-1.4-2c-0.8-1-1.7-1.8-2.8-2.6
		c-2.1-1.5-4.5-2.5-7-2.9c-0.6-0.1-1.2-0.1-1.8-0.2c-2.3-0.1-4.5,0.3-6.6,1.2c-1.5,0.6-2.8,1.5-4.1,2.5c-1.3,1.1-2.3,2.3-3.2,3.7
		c-1.1,1.8-1.8,3.7-2.2,5.7c-0.2,0.9-0.3,1.9-0.2,2.8c0,2.2,0.4,4.2,1.3,6.2c0.2,0.4,0.4,0.9,0.6,1.3c0.1,0.1,0.1,0.2,0.1,0.3
		c0.2,0.5,0.6,1,0.9,1.5c2.5,3.4,5.9,5.5,10,6.3c6.5,1.2,13.1-1.8,16.5-7.4c0.2-0.3,0.2-0.3,0.5-0.1c1.3,0.7,2.5,1.5,3.8,2.2
		c1.4,0.8,2.8,1.6,4.2,2.4c1.2,0.7,2.3,1.3,3.5,2c0.7,0.4,1.4,0.8,2,1.2c0,0.1-0.1,0.2-0.1,0.2c-4.5,7.5-11.1,12.4-19.5,14.7
		c-3,0.8-6.1,1.1-9.3,1c-6.4-0.3-12.3-2.3-17.5-6.1c-3.6-2.6-6.5-5.9-8.8-9.7c0-0.1-0.1-0.1-0.1-0.1c-0.7-1.2-1.3-2.5-1.9-3.8
		c-1-2.5-1.7-5-2.1-7.6c-0.3-1.9-0.4-3.9-0.3-5.8c0.2-5.1,1.6-9.9,4.1-14.4c2.2-3.9,5.1-7.2,8.7-9.9c3.7-2.8,7.9-4.7,12.5-5.7
		c2.6-0.5,5.2-0.8,7.8-0.7c5.1,0.2,9.9,1.5,14.3,4c4.8,2.7,8.7,6.3,11.6,11C132.1,66,132.3,66.3,132.5,66.6z"/>
	<path class="st3" d="M152.6,57.9c-0.2-0.7-0.5-1.4-0.8-2.1c-0.1-0.1-0.1-0.2-0.2-0.2c0,0,0,0,0,0c0-0.1,0-0.2-0.1-0.3
		c-0.6-1-1.4-1.9-2.4-2.6c-0.9-0.6-1.9-1.1-2.8-1.6c-2.9-1.7-5.9-3.4-8.8-5.1c-2.9-1.7-5.9-3.4-8.8-5.1c-3.1-1.8-6.1-3.5-9.2-5.3
		c-3.4-1.9-6.8-3.9-10.1-5.9c-0.9-0.5-1.8-0.8-2.8-0.9c-0.3,0-0.6,0-0.9-0.1c-0.5,0-1,0-1.5,0c-0.2,0.1-0.4,0-0.7,0
		c-1,0-1.9,0.3-2.7,0.8c-1.3,0.7-2.6,1.5-3.9,2.2c-2.7,1.5-5.4,3.1-8.1,4.6c-2.9,1.7-5.7,3.3-8.6,5c-3.2,1.8-6.3,3.6-9.5,5.5
		c-3,1.7-6,3.5-9.1,5.2c-0.7,0.4-1.4,0.8-2,1.4c-0.7,0.7-1.3,1.6-1.8,2.5c-0.5,0.9-0.8,1.8-0.9,2.8c0,0.1,0,0.3,0,0.4
		c0,15.6,0,31.3,0,46.9c0,0,0,0,0,0c0,0.9,0.2,1.7,0.6,2.5c0.2,0.3,0.3,0.7,0.6,1c0,0,0,0,0,0c0,0.1,0,0.2,0.1,0.3
		c0.5,0.8,1.1,1.6,1.8,2.2c0.6,0.5,1.3,0.9,2.1,1.3c3.4,2,6.8,3.9,10.2,5.9c3.2,1.8,6.4,3.7,9.6,5.5c2.8,1.6,5.6,3.3,8.5,4.9
		c2.9,1.7,5.9,3.4,8.8,5.1c0.6,0.4,1.2,0.7,1.9,1.1c0.7,0.4,1.4,0.6,2.2,0.6c1.1,0,2.2,0,3.3,0c0,0,0,0,0,0c0.9,0,1.7-0.3,2.4-0.7
		c1.6-0.9,3.2-1.8,4.8-2.8c2-1.1,4-2.3,5.9-3.4c2.1-1.2,4.3-2.5,6.4-3.7c2.8-1.6,5.5-3.2,8.3-4.8c2.5-1.4,5-2.9,7.4-4.3
		c2.1-1.2,4.2-2.5,6.3-3.6c1.3-0.7,2.4-1.8,3.2-3c0.1-0.2,0.2-0.3,0.2-0.5c0,0,0,0,0,0c0.1,0,0.2-0.1,0.2-0.2c0.3-0.6,0.6-1.3,0.8-2
		c0.1-0.4,0.1-0.9,0.2-1.3c0-15.6,0-31.3,0-46.9C152.7,58.7,152.7,58.3,152.6,57.9z M118.6,74.5C118.6,74.5,118.6,74.5,118.6,74.5
		c-0.8-1.4-1.8-2.7-3.1-3.7c-4.2-3.6-9-4.9-14.4-3.7c-6.8,1.5-11.8,7.4-12.3,14.3c-0.2,2.5,0.2,5,1.2,7.3c0.3,0.6,0.5,1.3,0.9,1.8
		c0,0,0,0,0,0c0,0.2,0.1,0.3,0.2,0.5c1,1.6,2.2,3,3.7,4.2c1.6,1.2,3.3,2.2,5.2,2.8c1.8,0.6,3.7,0.8,5.6,0.7c0.8,0,1.7-0.1,2.5-0.3
		c1.6-0.3,3.2-0.9,4.6-1.7c1.2-0.7,2.4-1.6,3.4-2.6c0.9-0.9,1.7-1.9,2.4-3c0.2-0.3,0.2-0.3,0.4-0.1c1.2,0.7,2.5,1.4,3.7,2.2
		c2,1.1,3.9,2.3,5.9,3.4c1.1,0.7,2.3,1.3,3.4,2c0.1,0.1,0.2,0.1,0.4,0.1c-0.1,0-0.1,0.1-0.1,0.2c-0.6,1.1-1.4,2.1-2.1,3.2
		c-1.1,1.5-2.4,2.9-3.8,4.2c-1.4,1.3-2.8,2.4-4.4,3.4c-2.1,1.3-4.3,2.4-6.6,3.2c-1.9,0.7-3.8,1.1-5.8,1.4c-1.1,0.2-2.2,0.3-3.3,0.3
		c-1.8,0.1-3.6,0-5.4-0.2c-1.9-0.3-3.7-0.6-5.5-1.2c-2.5-0.8-4.9-1.9-7.2-3.3c-1.9-1.2-3.7-2.6-5.4-4.2c-0.5-0.4-0.9-0.9-1.3-1.4
		c-0.6-0.6-1.1-1.3-1.7-2c-0.8-1.1-1.6-2.2-2.3-3.3c-0.1-0.1-0.1-0.2-0.3-0.2c0,0,0,0,0,0c0-0.2-0.1-0.3-0.1-0.4
		c-0.2-0.3-0.3-0.5-0.4-0.8c-1.2-2.4-2.2-4.8-2.8-7.4c-0.5-1.9-0.8-3.9-0.8-5.9c-0.1-1.7,0-3.5,0.2-5.2c0.2-1.4,0.4-2.8,0.8-4.2
		c0.7-2.7,1.7-5.2,3.1-7.7c1.3-2.3,2.9-4.5,4.7-6.4c0.9-1,1.9-1.8,2.9-2.7c1.9-1.5,3.9-2.8,6-3.9c1.8-0.9,3.6-1.6,5.5-2.1
		c2.4-0.7,4.8-1.1,7.3-1.2c1,0,2.1,0,3.1,0c0.8,0.1,1.5,0.1,2.3,0.2c1.7,0.2,3.4,0.6,5.1,1.1c3.2,1,6.3,2.4,9.1,4.4
		c2.1,1.5,4.1,3.2,5.8,5.2c1.2,1.4,2.3,2.9,3.3,4.5c0.1,0.1,0.2,0.3,0.3,0.4c-0.1,0-0.2,0.1-0.3,0.1c-0.6,0.3-1.2,0.7-1.7,1
		c-2.5,1.5-5,2.9-7.6,4.4C121.4,72.9,120,73.7,118.6,74.5z"/>
	<path class="st2" d="M129.6,84.4c-1.1,0-2.2,0-3.2,0c-0.2,0-0.3-0.1-0.3-0.3c0-1,0-2,0-3c0-0.2,0-0.3,0.2-0.2c1,0,2,0,3,0
		c0.1,0,0.2,0,0.3,0c0.1-0.1,0-0.2,0-0.3c0-1,0-2,0-3c0-0.1,0-0.2,0-0.3l0,0c0.1,0,0.2,0,0.3,0c1,0,2,0,3,0c0.1,0,0.2,0,0.2,0
		c0,1.1,0,2.2,0,3.2c0,0.2,0,0.3,0.3,0.3c1.1,0,2.2,0,3.2,0c0.1,0,0,0.1,0,0.2c0,1.1,0,2.1,0,3.2c0,0.1,0,0.1,0,0.2
		c-1.1,0-2.2,0-3.3,0c-0.2,0-0.2,0.1-0.2,0.2c0,1.1,0,2.2,0,3.3c-0.1,0.1-0.1,0-0.2,0c-1,0-2,0-3.1,0c-0.2,0-0.3,0-0.3-0.2
		c0-1,0-2,0-3C129.7,84.6,129.7,84.5,129.6,84.4z"/>
	<path class="st2" d="M150,84.4c-1.1,0-2.2,0-3.2,0c-0.2,0-0.3,0.1-0.3,0.3c0,1.1,0,2.2,0,3.2c-0.1,0.1-0.2,0-0.2,0c-1,0-2,0-3.1,0
		c-0.2,0-0.3,0-0.3-0.2c0-1,0-2,0-3c0-0.1,0-0.2,0-0.3c-1.1,0-2.2,0-3.2,0c-0.2,0-0.3-0.1-0.3-0.3c0-1,0-2,0-3c0-0.2,0-0.3,0.2-0.2
		c1,0,2,0,3,0c0.1,0,0.2,0,0.3,0c0.1-0.1,0-0.2,0-0.3c0-1,0-2,0-3c0-0.1,0-0.2,0-0.3l0,0c0.1,0,0.1,0,0.2,0c1,0,2.1,0,3.1,0
		c0.1,0,0.1,0,0.2,0c0,1.1,0,2.1,0,3.2c0,0.3,0.1,0.3,0.3,0.3c1.1,0,2.1,0,3.2,0c0.1,0,0,0.1,0,0.2c0,1.1,0,2.1,0,3.2
		C150.1,84.2,150.1,84.3,150,84.4z"/>
	<path class="st4" d="M129.6,84.4c0.1,0.1,0,0.2,0,0.3c0,1,0,2,0,3c0,0.2,0,0.3,0.3,0.3c1.1,0,2.2,0,3.3,0c-0.1,0.1-0.2,0.1-0.3,0.1
		c-1,0-2,0-3,0c-0.2,0-0.3,0-0.3-0.3C129.6,86.6,129.6,85.5,129.6,84.4z"/>
	<path class="st4" d="M142.9,84.4c0.1,0.1,0,0.2,0,0.3c0,1,0,2,0,3c0,0.1,0,0.2,0.2,0.2c1.1,0,2.2,0,3.3,0c-0.1,0.1-0.2,0.1-0.3,0.1
		c-1,0-2,0-3,0c-0.2,0-0.3-0.1-0.3-0.3C142.9,86.6,142.9,85.5,142.9,84.4z"/>
	<path class="st4" d="M136.7,84.4c0-1.2,0-2.4,0-3.6c0.1,0.1,0.1,0.2,0.1,0.2c0,1,0,2.1,0,3.1C136.8,84.2,136.8,84.3,136.7,84.4z"/>
	<path class="st4" d="M150,84.4c0-1.2,0-2.4,0-3.6c0.1,0,0.1,0.1,0.1,0.2c0,1,0,2.1,0,3.1C150.1,84.2,150.1,84.3,150,84.4z"/>
	<path class="st4" d="M133.2,77.3c-1.2,0-2.3,0-3.5,0c0.1-0.1,0.2,0,0.3,0c1,0,2,0,3,0C133.1,77.2,133.1,77.2,133.2,77.3z"/>
	<path class="st4" d="M146.5,77.3c-1.2,0-2.3,0-3.5,0c0.1-0.1,0.2,0,0.3,0c1,0,2,0,3,0C146.4,77.2,146.4,77.2,146.5,77.3z"/>
	<path class="st4" d="M129.7,77.3c0,1.1,0,2.1,0,3.2c0,0.1,0,0.2,0,0.3c0-1.1,0-2.2,0-3.3C129.6,77.4,129.6,77.3,129.7,77.3z"/>
	<path class="st4" d="M143,77.3c0,1.1,0,2.1,0,3.2c0,0.1,0,0.2,0,0.3c0-1.1,0-2.2,0-3.3C142.9,77.4,142.9,77.3,143,77.3z"/>
</g>
</svg>
