<?xml version="1.0" encoding="utf-8"?>
<!-- Generator: Adobe Illustrator 26.0.1, SVG Export Plug-In . SVG Version: 6.00 Build 0)  -->
<svg version="1.1" id="Layer_1" xmlns="http://www.w3.org/2000/svg" xmlns:xlink="http://www.w3.org/1999/xlink" x="0px" y="0px"
	 viewBox="0 0 493.4 164.5" style="enable-background:new 0 0 493.4 164.5;" xml:space="preserve">
<style type="text/css">
	.st0{fill:#303030;}
	.st1{fill:#FEFEFE;}
	.st2{fill:#101010;}
	.st3{fill:#FCFCFD;}
	.st4{fill:#FFFFFF;}
</style>
<g>
	<path class="st0" d="M427.8,124.3H108.7c-4.9,0-8.9-4-8.9-8.9V49c0-4.9,4-8.9,8.9-8.9h319.1c4.9,0,8.9,4,8.9,8.9v66.4
		C436.7,120.3,432.7,124.3,427.8,124.3z"/>
	<g>
		<path class="st1" d="M120.3,91.5c0.3-0.2,0.6-0.4,1-0.1c5,3,10.1,5.7,15,8.9c-6,10-14.8,15.9-26.3,17.5
			c-9.7,1.3-18.4-1.1-26.3-6.9c-4-2.9-7-6.7-9.6-10.8c-2.3-4.7-3.9-9.5-4.4-14.8c-1.8-17.4,10.8-34.5,28.1-38
			c15.5-3.1,29.7,3.1,38.5,16.9c-5.2,3.1-10.4,6.3-15.9,9c-0.8-0.1-1.2-0.8-1.6-1.3c-5.4-6.3-12.7-8.2-19.9-5.3
			c-8.3,3.3-12.6,12.9-9.6,21.3c0.4,1.1,0.8,2.1,1.3,3.2c2.5,3.7,5.7,6.6,10.1,7.8c1.1,0.3,2.2,0.5,3.3,0.6c0.9,0.2,1.8,0.2,2.7,0
			c4.6-0.3,8.2-2.4,11.3-5.6C118.6,92.8,119.1,91.7,120.3,91.5z"/>
		<path class="st2" d="M153.2,58c-0.3-0.8-0.2-1.6-0.5-2.4c-0.2-0.4-0.2-0.8-0.6-0.9c0,0,0,0,0,0c-0.6-2.1-2.4-3.2-4.1-4.2
			c-12.3-7.1-24.6-14.2-36.9-21.3c-1.3-0.8-2.7-1.2-4.3-1.1c-1.3,0.2-2.5,0.2-3.8,0c-1.4-0.1-2.7,0.3-4,1
			c-12.3,7.1-24.5,14.1-36.8,21.2c-3,1.7-5.3,3.9-5.6,7.6c0,0.1,0,0.2,0,0.4c0.5,0.6,0.4,1.4,0.4,2.1c0,14.5,0,29,0,43.5
			c0,0.7,0.2,1.5-0.4,2.1c0,0.1,0,0.2,0,0.4c0.5,0.9,0,2.1,1,2.8c0,0,0,0,0.1,0c-0.2,0.7,0.2,1.2,0.6,1.8c0.8,1,1.9,1.9,3,2.5
			c11.5,6.7,23,13.3,34.5,19.9c2.1,1.2,4.1,2.7,6.7,3c1.4,0,2.9,0,4.3,0c2.3-0.3,4.3-1.3,6.3-2.5c9.5-5.5,19-10.9,28.4-16.4
			c2.7-1.6,5.5-3,8.1-4.8c1.2-0.8,2.5-1.7,2.4-3.5c1.4-0.7,0.7-2.1,0.9-3.2c0-15.1,0-30.3,0-45.4c0-0.6-0.2-1.3,0.2-1.9
			C153.2,58.5,153.2,58.2,153.2,58z M133.3,103.3c-8.1,10.4-18.9,15-31.9,13.8c-11-1.1-19.6-6.6-25.8-15.9c-0.4-0.5-0.7-1.1-1.4-1.2
			c0-0.1,0.1-0.1,0.1-0.1c0.1-1-0.4-1.7-0.8-2.6c-2.9-6.4-4-13-3.1-20c2.1-15.8,16-29.1,31.9-30c13.3-0.8,24,4.3,31.8,15.2
			c0.4,0.6,0.8,1.2,1.4,1.6c-0.8,0.1-1.4,0.5-2.1,0.9c-4.5,2.5-8.9,5.2-13.4,7.7c0,0,0,0,0,0c-2.8-5.6-10.9-9.3-17.8-8
			c-12.4,2.3-18.4,15.2-12.4,26.6c0.6,1.1,1.5,2,2.3,2.9c3,3.6,6.9,5.4,11.5,5.7c1.1-0.3,2.2-0.2,3.2,0c5.8-0.5,10.1-3.3,13.2-8.1
			c0,0,0,0,0,0c1,0.4,1.9,0.8,2.8,1.3c3.7,2.2,7.3,4.3,11,6.4c0.6,0.3,1.1,0.7,1.8,0.8C134.6,101.1,134.1,102.3,133.3,103.3z"/>
		<path class="st3" d="M140.9,79.7c-0.8,1.4-0.2,2.9-0.3,4.3c-0.1,0.6,0.4,0.6,0.9,0.6c0.9,0,1.8,0,2.7,0c1-0.1,1.5,0.1,1.5,1.3
			c0,1.2-0.6,1.3-1.5,1.3c-1,0-1.9,0-2.9,0.1c-0.1,0.2-0.2,0.2-0.4,0c-0.8,1.2-0.3,2.5-0.3,3.8c0,1.1-0.5,1.2-1.4,1.3
			c-1,0-1.2-0.3-1.2-1.2c-0.1-1.3,0.4-2.6-0.3-3.8c-0.1,0.2-0.3,0.2-0.4,0c-1.2,0-2.4,0-3.6,0c-0.1,0.2-0.2,0.2-0.4,0
			c-0.7,0.5-0.1,1.3-0.4,1.9c-0.5,1,1.3,3.1-1.3,3c-2.6-0.1-0.7-2.1-1.2-3.1c-0.3-0.5,0.3-1.3-0.3-1.8c-0.1,0.2-0.3,0.2-0.4,0
			c-0.9,0-1.9-0.1-2.8-0.1c-1,0-1.6-0.1-1.6-1.4c0-1.3,0.7-1.2,1.6-1.2c1.1-0.1,2.2,0.3,3.3-0.2c-0.3-1.6,0.4-3.2-0.4-4.7
			c-0.6,0-1.3-0.1-1.9-0.1c-2.7,0-2.7,0-2.4-2.7c1.5-0.6,3.1-0.4,4.7-0.1c0.7-1.6,0-3.3,0.4-4.9c0.7-0.6,1.3-0.4,2-0.1
			c0.9,0.9,0.2,1.9,0.4,2.9c0.2,0.7-0.4,1.5,0.4,2.1c1.4-0.4,2.9-0.3,4.3,0c0.8-1,0.1-2.2,0.3-3.2c0.1-0.6-0.3-1.4,0.5-1.8
			c0.5-0.4,1.1-0.4,1.6,0c0.9,0.7,0.3,1.7,0.5,2.5c0.2,0.8-0.4,1.8,0.3,2.5c1.4-0.3,2.8-0.4,4.2,0c1.1,2,0.7,2.8-1.4,2.8
			c-0.8,0-1.6,0.1-2.5,0.1C141.1,79.9,141,79.9,140.9,79.7z"/>
		<path class="st2" d="M132.9,81.8c0-2.3,0-2.3,2.8-2.3c2.2,0,2.2,0,2.2,2.9c0,2.1,0,1.9-3,2.2C132.2,84.9,133,83.2,132.9,81.8z"/>
	</g>
	<g>
		<g>
			<path class="st4" d="M233,87.5c-1.2,6.9-6.3,11.6-15.4,11.6c-10.9,0-16.1-7.3-16.1-17c0-9.4,5.2-17.5,16.6-17.5
				c9.8,0,14.2,5.7,14.9,11.4h-9.7c-0.4-2.4-1.8-4.6-5.4-4.6c-4.7,0-6.3,4.5-6.3,10.3c0,5.3,1.3,10.5,6.5,10.5c3.9,0,5-2.8,5.4-4.7
				H233z"/>
			<path class="st4" d="M256,88.4c0.6,2.9,2.6,4.1,5.7,4.1c2.9,0,4.3-1,4.3-3c0-2.2-1.5-3-6.7-4.3c-9.8-2.4-11.8-6-11.8-10.4
				c0-5.6,4.1-10.2,13.4-10.2c9.6,0,13.5,4.9,14,10.1h-9.4c-0.3-1.8-1.2-3.6-4.6-3.6c-2.2,0-3.6,0.8-3.6,2.6c0,1.8,1.2,2.5,6.3,3.8
				c10.2,2.6,12.3,6.2,12.3,11c0,6.2-4.8,10.6-14.6,10.6c-9.2,0-14.1-4.3-14.8-10.7H256z"/>
			<path class="st4" d="M289.6,63.5v12.3c1.2-1.5,3.4-3.3,7.1-3.3c5.2,0,8.3,3.3,8.3,9.6v16.4h-9.4V83.2c0-2.5-0.8-3.8-2.9-3.8
				c-2.8,0-3.2,2.2-3.2,5.3v13.7h-9.4v-35H289.6z"/>
			<path class="st4" d="M333.7,90.9c0,2.9,0.1,6.7,0.3,7.5h-8.7c-0.2-0.5-0.4-1.7-0.4-2.3c-1.2,1.6-3.1,2.9-7.1,2.9
				c-5.7,0-8.7-3.6-8.7-8.1c0-5.9,4.8-8.5,12.5-8.5c0.8,0,2.3,0,3.1,0v-1.4c0-1.6-0.6-2.8-2.8-2.8c-2.1,0-2.7,1-2.9,2.6h-8.7
				c0.3-4.2,2.8-8.4,11.8-8.3c8.3,0,11.7,3.2,11.7,9.3V90.9z M324.7,87.2c-0.5,0-1.3,0-2.1,0c-3.2,0-4.3,1.1-4.3,3
				c0,1.5,0.9,2.7,2.8,2.7c3.2,0,3.6-2.2,3.6-4.9V87.2z"/>
			<path class="st4" d="M339.2,80.4c0-2.4,0-5-0.1-7.3h9.2c0.1,0.8,0.2,3,0.2,4.1c1-2.4,3.4-4.7,7.8-4.7v8.6c-5.3-0.2-7.7,1-7.7,6.9
				v10.4h-9.4V80.4z"/>
			<path class="st4" d="M369.3,96.7v11h-9.4V79.9c0-2.3,0-5,0-6.8h9.2c0.1,0.6,0.2,2.1,0.2,2.8c1-1.5,3-3.4,7.1-3.4
				c5.3,0,9.9,4.4,9.9,12.7c0,9.4-5.3,13.9-11.1,13.9C372,99,370.3,97.9,369.3,96.7z M376.7,85.5c0-4.7-1.4-6.4-3.8-6.4
				c-3,0-3.9,2-3.9,6.8c0,4.4,0.9,6.6,3.7,6.6C375.4,92.5,376.7,90.4,376.7,85.5z"/>
		</g>
	</g>
</g>
</svg>
