<?xml version="1.0" encoding="utf-8"?>
<!-- Generator: Adobe Illustrator 26.0.1, SVG Export Plug-In . SVG Version: 6.00 Build 0)  -->
<svg version="1.1" id="Layer_1" xmlns="http://www.w3.org/2000/svg" xmlns:xlink="http://www.w3.org/1999/xlink" x="0px" y="0px"
	 viewBox="0 0 493.4 164.5" style="enable-background:new 0 0 493.4 164.5;" xml:space="preserve">
<style type="text/css">
	.st0{fill:#303030;}
	.st1{fill:#FEFEFE;}
	.st2{fill:#101010;}
	.st3{fill:#FCFCFD;}
	.st4{fill:#FFFFFF;}
</style>
<g>
	<path class="st0" d="M427.8,124.3H108.7c-4.9,0-8.9-4-8.9-8.9V49c0-4.9,4-8.9,8.9-8.9h319.1c4.9,0,8.9,4,8.9,8.9v66.4
		C436.7,120.3,432.7,124.3,427.8,124.3z"/>
	<g>
		<path class="st1" d="M120.3,91.5c0.3-0.2,0.6-0.4,1-0.1c5,3,10.1,5.7,15,8.9c-6,10-14.8,15.9-26.3,17.5
			c-9.7,1.3-18.4-1.1-26.3-6.9c-4-2.9-7-6.7-9.6-10.8c-2.3-4.7-3.9-9.5-4.4-14.8c-1.8-17.4,10.8-34.5,28.1-38
			c15.5-3.1,29.7,3.1,38.5,16.9c-5.2,3.1-10.4,6.3-15.9,9c-0.8-0.1-1.2-0.8-1.6-1.3c-5.4-6.3-12.7-8.2-19.9-5.3
			c-8.3,3.3-12.6,12.9-9.6,21.3c0.4,1.1,0.8,2.1,1.3,3.2c2.5,3.7,5.7,6.6,10.1,7.8c1.1,0.3,2.2,0.5,3.3,0.6c0.9,0.2,1.8,0.2,2.7,0
			c4.6-0.3,8.2-2.4,11.3-5.6C118.6,92.8,119.1,91.7,120.3,91.5z"/>
		<path class="st2" d="M153.2,58c-0.3-0.8-0.2-1.6-0.5-2.4c-0.2-0.4-0.2-0.8-0.6-0.9c0,0,0,0,0,0c-0.6-2.1-2.4-3.2-4.1-4.2
			c-12.3-7.1-24.6-14.2-36.9-21.3c-1.3-0.8-2.7-1.2-4.3-1.1c-1.3,0.2-2.5,0.2-3.8,0c-1.4-0.1-2.7,0.3-4,1
			c-12.3,7.1-24.5,14.1-36.8,21.2c-3,1.7-5.3,3.9-5.6,7.6c0,0.1,0,0.2,0,0.4c0.5,0.6,0.4,1.4,0.4,2.1c0,14.5,0,29,0,43.5
			c0,0.7,0.2,1.5-0.4,2.1c0,0.1,0,0.2,0,0.4c0.5,0.9,0,2.1,1,2.8c0,0,0,0,0.1,0c-0.2,0.7,0.2,1.2,0.6,1.8c0.8,1,1.9,1.9,3,2.5
			c11.5,6.7,23,13.3,34.5,19.9c2.1,1.2,4.1,2.7,6.7,3c1.4,0,2.9,0,4.3,0c2.3-0.3,4.3-1.3,6.3-2.5c9.5-5.5,19-10.9,28.4-16.4
			c2.7-1.6,5.5-3,8.1-4.8c1.2-0.8,2.5-1.7,2.4-3.5c1.4-0.7,0.7-2.1,0.9-3.2c0-15.1,0-30.3,0-45.4c0-0.6-0.2-1.3,0.2-1.9
			C153.2,58.5,153.2,58.2,153.2,58z M133.3,103.3c-8.1,10.4-18.9,15-31.9,13.8c-11-1.1-19.6-6.6-25.8-15.9c-0.4-0.5-0.7-1.1-1.4-1.2
			c0-0.1,0.1-0.1,0.1-0.1c0.1-1-0.4-1.7-0.8-2.6c-2.9-6.4-4-13-3.1-20c2.1-15.8,16-29.1,31.9-30c13.3-0.8,24,4.3,31.8,15.2
			c0.4,0.6,0.8,1.2,1.4,1.6c-0.8,0.1-1.4,0.5-2.1,0.9c-4.5,2.5-8.9,5.2-13.4,7.7c0,0,0,0,0,0c-2.8-5.6-10.9-9.3-17.8-8
			c-12.4,2.3-18.4,15.2-12.4,26.6c0.6,1.1,1.5,2,2.3,2.9c3,3.6,6.9,5.4,11.5,5.7c1.1-0.3,2.2-0.2,3.2,0c5.8-0.5,10.1-3.3,13.2-8.1
			c0,0,0,0,0,0c1,0.4,1.9,0.8,2.8,1.3c3.7,2.2,7.3,4.3,11,6.4c0.6,0.3,1.1,0.7,1.8,0.8C134.6,101.1,134.1,102.3,133.3,103.3z"/>
		<path class="st3" d="M140.9,79.7c-0.8,1.4-0.2,2.9-0.3,4.3c-0.1,0.6,0.4,0.6,0.9,0.6c0.9,0,1.8,0,2.7,0c1-0.1,1.5,0.1,1.5,1.3
			c0,1.2-0.6,1.3-1.5,1.3c-1,0-1.9,0-2.9,0.1c-0.1,0.2-0.2,0.2-0.4,0c-0.8,1.2-0.3,2.5-0.3,3.8c0,1.1-0.5,1.2-1.4,1.3
			c-1,0-1.2-0.3-1.2-1.2c-0.1-1.3,0.4-2.6-0.3-3.8c-0.1,0.2-0.3,0.2-0.4,0c-1.2,0-2.4,0-3.6,0c-0.1,0.2-0.2,0.2-0.4,0
			c-0.7,0.5-0.1,1.3-0.4,1.9c-0.5,1,1.3,3.1-1.3,3c-2.6-0.1-0.7-2.1-1.2-3.1c-0.3-0.5,0.3-1.3-0.3-1.8c-0.1,0.2-0.3,0.2-0.4,0
			c-0.9,0-1.9-0.1-2.8-0.1c-1,0-1.6-0.1-1.6-1.4c0-1.3,0.7-1.2,1.6-1.2c1.1-0.1,2.2,0.3,3.3-0.2c-0.3-1.6,0.4-3.2-0.4-4.7
			c-0.6,0-1.3-0.1-1.9-0.1c-2.7,0-2.7,0-2.4-2.7c1.5-0.6,3.1-0.4,4.7-0.1c0.7-1.6,0-3.3,0.4-4.9c0.7-0.6,1.3-0.4,2-0.1
			c0.9,0.9,0.2,1.9,0.4,2.9c0.2,0.7-0.4,1.5,0.4,2.1c1.4-0.4,2.9-0.3,4.3,0c0.8-1,0.1-2.2,0.3-3.2c0.1-0.6-0.3-1.4,0.5-1.8
			c0.5-0.4,1.1-0.4,1.6,0c0.9,0.7,0.3,1.7,0.5,2.5c0.2,0.8-0.4,1.8,0.3,2.5c1.4-0.3,2.8-0.4,4.2,0c1.1,2,0.7,2.8-1.4,2.8
			c-0.8,0-1.6,0.1-2.5,0.1C141.1,79.9,141,79.9,140.9,79.7z"/>
		<path class="st2" d="M132.9,81.8c0-2.3,0-2.3,2.8-2.3c2.2,0,2.2,0,2.2,2.9c0,2.1,0,1.9-3,2.2C132.2,84.9,133,83.2,132.9,81.8z"/>
	</g>
	<g>
		<g>
			<path class="st4" d="M208.4,97.2c-1.8-1-3.2-2.5-4.2-4.4c-1-1.9-1.5-4.2-1.5-6.8v-9.4c0-2.6,0.5-4.9,1.5-6.8
				c1-1.9,2.4-3.4,4.2-4.4c1.8-1,4-1.6,6.5-1.6c2.1,0,3.9,0.4,5.6,1.3c1.7,0.9,3.1,2.1,4.2,3.8c1.1,1.7,1.9,3.6,2.3,5.9h-5.8
				c-0.3-1.1-0.7-2.1-1.3-2.9c-0.6-0.8-1.3-1.5-2.2-1.9c-0.8-0.4-1.7-0.7-2.7-0.7c-1.3,0-2.4,0.3-3.4,0.9c-1,0.6-1.7,1.4-2.2,2.5
				c-0.5,1.1-0.8,2.4-0.8,3.8V86c0,1.5,0.3,2.8,0.8,3.8c0.5,1.1,1.3,1.9,2.2,2.5c1,0.6,2.1,0.9,3.4,0.9c1,0,1.9-0.2,2.7-0.6
				c0.8-0.4,1.6-1,2.2-1.9c0.6-0.8,1.1-1.8,1.3-2.9h5.8c-0.4,2.3-1.2,4.2-2.3,5.9c-1.1,1.7-2.5,2.9-4.2,3.8
				c-1.7,0.9-3.5,1.3-5.6,1.3C212.4,98.8,210.3,98.3,208.4,97.2z"/>
			<path class="st4" d="M252,98.3c-1.5-0.3-2.9-0.8-4.3-1.4c-1.3-0.6-2.5-1.4-3.6-2.3l3-4.5c1.3,1.1,2.8,2,4.4,2.5
				c1.6,0.6,3.4,0.9,5.2,0.9c2.3,0,4.1-0.4,5.3-1.2c1.3-0.8,1.9-2,1.9-3.5v0c0-1.1-0.3-1.9-0.8-2.5c-0.6-0.6-1.3-1.1-2.2-1.4
				c-0.9-0.3-2.1-0.6-3.5-0.8c0,0-0.1,0-0.1,0c0,0-0.1,0-0.1,0l-0.4-0.1c-2.3-0.4-4.2-0.8-5.7-1.3c-1.5-0.5-2.7-1.4-3.8-2.8
				c-1-1.3-1.6-3.2-1.6-5.7v0c0-2.2,0.5-4,1.5-5.6c1-1.5,2.4-2.7,4.2-3.5s4.1-1.2,6.7-1.2c1.2,0,2.5,0.1,3.7,0.4
				c1.2,0.3,2.4,0.7,3.6,1.2c1.2,0.5,2.3,1.2,3.5,2l-2.7,4.6c-1.3-0.9-2.7-1.7-4-2.1c-1.4-0.5-2.7-0.7-4-0.7c-2.2,0-3.8,0.4-5,1.2
				c-1.2,0.8-1.8,1.9-1.8,3.4v0c0,1.1,0.3,1.9,0.9,2.6s1.4,1.1,2.3,1.4s2.2,0.6,3.9,0.9c0.1,0,0.1,0,0.2,0c0.1,0,0.1,0,0.2,0
				c0.1,0,0.2,0,0.3,0s0.2,0,0.3,0c2.1,0.4,3.9,0.9,5.3,1.5c1.4,0.6,2.6,1.6,3.6,2.9c1,1.3,1.4,3.1,1.4,5.4v0c0,2.1-0.5,4-1.5,5.5
				c-1,1.5-2.5,2.7-4.4,3.5c-1.9,0.8-4.2,1.2-6.9,1.2C255.1,98.8,253.6,98.6,252,98.3z"/>
			<path class="st4" d="M275.5,64.2h5.6v34.3h-5.6V64.2z M290,83.6c0-1.5-0.4-2.6-1.2-3.4c-0.8-0.8-1.9-1.2-3.3-1.2
				c-1.4,0-2.5,0.4-3.2,1.1c-0.8,0.7-1.1,1.8-1.1,3.1l-0.5-5.1c0.7-1.5,1.7-2.6,2.8-3.4c1.1-0.8,2.4-1.2,4-1.2
				c2.6,0,4.6,0.9,6.1,2.6c1.4,1.7,2.2,4.2,2.2,7.4v14.8H290V83.6z"/>
			<path class="st4" d="M303.4,96.9c-1.4-1.2-2.1-3.1-2.1-5.7c0-2.4,0.7-4.2,2.1-5.4c1.4-1.2,3.5-1.8,6.4-1.8h6.6l0.3,4.4h-6.9
				c-1.1,0-2,0.2-2.5,0.7c-0.6,0.5-0.8,1.2-0.8,2.2c0,1,0.4,1.8,1.1,2.3c0.7,0.5,1.8,0.7,3.3,0.7c1.8,0,3.1-0.2,4-0.6
				c0.9-0.4,1.3-1,1.3-1.8l0.5,3.5c-0.3,0.8-0.7,1.4-1.4,1.9c-0.7,0.5-1.5,0.9-2.4,1.2c-0.9,0.3-2,0.4-3.1,0.4
				C306.9,98.8,304.8,98.2,303.4,96.9z M316.1,82.9c0-1.4-0.4-2.4-1.2-3.2c-0.8-0.8-2-1.1-3.4-1.1c-0.9,0-1.9,0.1-2.8,0.4
				c-0.9,0.3-1.7,0.7-2.5,1.2l-3.7-3.2c1-1.1,2.2-2,3.8-2.6c1.6-0.6,3.3-0.9,5.2-0.9c2.1,0,3.8,0.4,5.3,1.1c1.5,0.7,2.6,1.8,3.4,3.1
				c0.8,1.4,1.2,3,1.2,4.9v15.7h-5.2V82.9z"/>
			<path class="st4" d="M328.1,74h5.9v24.5h-5.9V74z M340.4,79.3c-0.6-0.2-1.2-0.3-1.9-0.3c-1.4,0-2.5,0.4-3.3,1.3
				c-0.8,0.8-1.2,2-1.2,3.5l-0.5-5.5c0.7-1.5,1.6-2.6,2.8-3.4c1.1-0.8,2.4-1.2,3.8-1.2c1.1,0,2,0.2,2.9,0.5c0.9,0.3,1.6,0.8,2.3,1.4
				l-3.4,4.7C341.4,79.9,340.9,79.6,340.4,79.3z"/>
			<path class="st4" d="M348.7,74h5.6v34.4h-5.6V74z M356.4,97.7c-1.1-0.7-1.9-1.8-2.4-3.1l0.3-5.3c0,0.9,0.2,1.7,0.5,2.4
				c0.3,0.7,0.8,1.2,1.4,1.5c0.6,0.3,1.4,0.5,2.3,0.5c1.4,0,2.5-0.4,3.3-1.3c0.8-0.9,1.2-2.1,1.2-3.7V84c0-1.6-0.4-2.9-1.2-3.8
				c-0.8-0.9-1.9-1.4-3.3-1.4c-0.9,0-1.7,0.2-2.3,0.5c-0.6,0.3-1.1,0.8-1.4,1.5c-0.3,0.7-0.5,1.5-0.5,2.4l-0.5-5.1
				c0.7-1.4,1.6-2.5,2.7-3.3s2.4-1.2,3.8-1.2c1.7,0,3.2,0.4,4.4,1.2c1.2,0.8,2.2,2,2.8,3.5c0.6,1.5,1,3.4,1,5.6v4.6
				c0,2.2-0.3,4-1,5.5c-0.7,1.5-1.6,2.7-2.9,3.5c-1.3,0.8-2.8,1.2-4.5,1.2C358.8,98.8,357.5,98.4,356.4,97.7z"/>
		</g>
	</g>
</g>
</svg>
