<?xml version="1.0" encoding="utf-8"?>
<!-- Generator: Adobe Illustrator 26.0.1, SVG Export Plug-In . SVG Version: 6.00 Build 0)  -->
<svg version="1.1" id="Layer_1" xmlns="http://www.w3.org/2000/svg" xmlns:xlink="http://www.w3.org/1999/xlink" x="0px" y="0px"
	 viewBox="0 0 300 100" style="enable-background:new 0 0 300 100;" xml:space="preserve">
<style type="text/css">
	.st0{fill:#390090;}
	.st1{fill:#A079DB;}
	.st2{fill:#280068;}
	.st3{fill:#FEFEFE;}
	.st4{fill:#FCFCFD;}
	.st5{fill:#380090;}
	.st6{fill:#FFFFFF;}
</style>
<g>
	<path class="st0" d="M251.3,74.4H73.7c-4.9,0-8.9-4-8.9-8.9V34.5c0-4.9,4-8.9,8.9-8.9h177.7c4.9,0,8.9,4,8.9,8.9v31.1
		C260.2,70.5,256.3,74.4,251.3,74.4z"/>
	<g>
		<g>
			
				<image style="overflow:visible;opacity:0.75;" width="87" height="94" xlink:href="4954EA09.png"  transform="matrix(1 0 0 1 24 3)">
			</image>
			<g>
				<g>
					<path class="st1" d="M39.8,36.2c0-0.1,0-0.1,0-0.2c0.1-2.2,1.5-3.4,3.2-4.4c7.1-4.1,14.2-8.2,21.3-12.3
						c0.7-0.4,1.5-0.6,2.3-0.6c0.7,0.1,1.5,0.1,2.2,0c0.9-0.1,1.7,0.2,2.5,0.6c7.1,4.1,14.3,8.2,21.4,12.3c1,0.6,2,1.2,2.4,2.4
						c0,0.6-0.4,0.8-0.8,1.1c-2.4,1.4-4.8,2.8-7.3,4.2c-0.4,0.2-0.7,0.4-1.2,0.3c-0.5-0.2-0.8-0.7-1.1-1.1
						c-4.5-6.3-10.7-9.3-18.4-8.8C57,30.3,49,37.9,47.7,47.1c-0.5,4.1,0.1,7.9,1.8,11.6c0.2,0.5,0.5,0.9,0.4,1.5
						c-0.1,0.5-0.6,0.8-1,1c-2.4,1.4-4.9,2.8-7.3,4.2c-0.4,0.2-0.9,0.4-1.4,0.2c-0.6-0.4-0.3-1.1-0.6-1.6c0-0.1,0-0.1,0-0.2
						C40,63.5,40,63,40,62.6c0-8.4,0-16.8,0-25.3C40,37,40,36.5,39.8,36.2z"/>
					<path class="st2" d="M40.4,65.6c0.3,0,0.5-0.1,0.7-0.2c2.9-1.7,5.8-3.4,8.7-5c0.5,0,0.7,0.4,1,0.7c3.6,5.4,8.6,8.6,14.9,9.2
						c7.5,0.7,13.8-1.9,18.5-8c0.5-0.7,0.8-1.5,1.6-1.9c0.5-0.2,0.9,0.1,1.3,0.3c2.3,1.4,4.7,2.7,7,4.1c0.4,0.2,0.9,0.5,1,1
						c0.1,1.1-0.7,1.6-1.4,2.1c-1.5,1-3.1,1.9-4.7,2.8c-5.5,3.2-11,6.3-16.5,9.5c-1.2,0.7-2.3,1.3-3.6,1.4c-0.8,0-1.7,0-2.5,0
						c-1.5-0.2-2.6-1-3.9-1.7c-6.7-3.9-13.4-7.7-20-11.6c-0.7-0.4-1.3-0.9-1.8-1.5C40.5,66.4,40.2,66,40.4,65.6z"/>
					<path class="st0" d="M94.9,65.8c-1.7-1.3-3.6-2.2-5.4-3.3c-1.2-0.7-2.4-1.4-3.6-2c-0.5,0.1-0.9-0.2-1.4-0.4
						c-2.1-1.2-4.3-2.5-6.4-3.7c-0.5-0.3-1.1-0.5-1.6-0.7c-2.5-1.7-5.2-3.1-7.7-4.6c-0.4-0.3-0.9-0.4-1.1-0.9c0-0.5,0.4-0.7,0.8-0.9
						c2.7-1.5,5.3-3.2,8-4.6c2.6-1.5,5.2-3,7.8-4.5c0.5-0.3,0.9-0.6,1.5-0.5c2.8-1.6,5.7-3.3,8.5-4.9c0.2-0.1,0.4-0.2,0.5-0.5
						c0.5-0.2,0.5,0.2,0.6,0.5c0.2,0.4,0.1,0.9,0.3,1.4c0,0.1,0,0.3,0,0.4c-0.2,0.4-0.1,0.8-0.1,1.1c0,8.8,0,17.6,0,26.3
						C95.5,64.5,95.9,65.4,94.9,65.8z"/>
				</g>
			</g>
		</g>
		<path class="st3" d="M76.6,55.4c0.2-0.1,0.3-0.2,0.6-0.1c2.9,1.7,5.9,3.3,8.7,5.1c-3.5,5.8-8.6,9.2-15.3,10.1
			c-5.6,0.8-10.7-0.7-15.3-4c-2.3-1.7-4-3.9-5.6-6.3c-1.4-2.7-2.3-5.5-2.6-8.6c-1-10.1,6.3-20,16.3-22.1c9-1.8,17.2,1.8,22.3,9.8
			c-3,1.8-6,3.7-9.2,5.2c-0.5-0.1-0.7-0.5-0.9-0.8c-3.1-3.6-7.4-4.8-11.6-3.1c-4.8,1.9-7.3,7.5-5.6,12.3c0.2,0.6,0.5,1.2,0.7,1.8
			c1.5,2.1,3.3,3.8,5.9,4.5c0.6,0.2,1.3,0.3,1.9,0.3c0.5,0.1,1.1,0.1,1.6,0c2.6-0.1,4.7-1.4,6.5-3.3C75.7,56.2,75.9,55.5,76.6,55.4z
			"/>
		<path class="st1" d="M59,55.2c-3.5-6.6,0-14.1,7.2-15.4c4.1-0.8,8.9,1.5,10.5,4.9c-2.2,1.5-4.7,2.7-7,4.1
			c-0.6,0.4-1.2,0.8-1.9,1.1c-0.1,0.4-0.4,0.6-0.7,0.8c-2.4,1.4-4.7,2.7-7.1,4.1C59.7,55.1,59.4,55.2,59,55.2z"/>
		<path class="st2" d="M59,55.2c0.1-0.1,0.2-0.3,0.3-0.4c2.8-1.6,5.7-3.2,8.5-4.9c2.7,1.5,5.3,3,8,4.6c0.3,0.2,0.8,0.4,0.8,0.9
			c-1.8,2.9-4.4,4.5-7.8,4.8c-0.6-0.1-1.3-0.1-1.9,0c-2.7-0.2-4.9-1.2-6.7-3.3C59.9,56.4,59.4,55.9,59,55.2z"/>
		<path class="st4" d="M88.6,48.6c-0.4,0.8-0.1,1.7-0.2,2.5c0,0.3,0.3,0.4,0.5,0.4c0.5,0,1,0,1.6,0c0.6,0,0.9,0,0.9,0.8
			c0,0.7-0.3,0.8-0.9,0.8c-0.6,0-1.1,0-1.7,0c-0.1,0.1-0.1,0.1-0.2,0c-0.4,0.7-0.2,1.5-0.2,2.2c0,0.7-0.3,0.7-0.8,0.7
			c-0.6,0-0.7-0.2-0.7-0.7c0-0.7,0.3-1.5-0.2-2.2c-0.1,0.1-0.1,0.1-0.2,0c-0.7,0-1.4,0-2.1,0c-0.1,0.1-0.1,0.1-0.2,0
			c-0.4,0.3-0.1,0.8-0.2,1.1c-0.3,0.6,0.7,1.8-0.8,1.8c-1.5,0-0.4-1.2-0.7-1.8c-0.2-0.3,0.2-0.8-0.2-1.1c-0.1,0.1-0.2,0.1-0.2,0
			c-0.6,0-1.1-0.1-1.7,0c-0.6,0-0.9,0-0.9-0.8c0-0.8,0.4-0.7,0.9-0.7c0.6,0,1.3,0.2,1.9-0.1c-0.2-0.9,0.2-1.9-0.3-2.7
			c-0.4,0-0.7,0-1.1,0c-1.5,0-1.5,0-1.4-1.6c0.9-0.3,1.8-0.2,2.7-0.1c0.4-0.9,0-1.9,0.2-2.9c0.4-0.3,0.8-0.2,1.2,0
			c0.5,0.5,0.1,1.1,0.3,1.7c0.1,0.4-0.2,0.9,0.2,1.2c0.8-0.2,1.7-0.2,2.5,0c0.4-0.6,0.1-1.3,0.2-1.9c0.1-0.4-0.2-0.8,0.3-1
			c0.3-0.2,0.6-0.2,0.9,0c0.5,0.4,0.2,1,0.3,1.5c0.1,0.5-0.2,1,0.2,1.5c0.8-0.2,1.6-0.2,2.5,0c0.6,1.2,0.4,1.6-0.8,1.6
			c-0.5,0-1,0-1.4,0C88.7,48.7,88.7,48.7,88.6,48.6z"/>
		<path class="st5" d="M84,49.8c0-1.3,0-1.3,1.7-1.3c1.3,0,1.3,0,1.3,1.7c0,1.2,0,1.1-1.8,1.3C83.6,51.6,84,50.6,84,49.8z"/>
	</g>
	<g>
		<g>
			<path class="st6" d="M141,53.6c-0.8,3.5-3.4,6.1-8.1,6.1c-6,0-8.9-4.4-8.9-9.9c0-5.3,3-10,9.1-10c5,0,7.4,2.9,8,6.1h-3.6
				c-0.5-1.7-1.7-3.2-4.4-3.2c-3.7,0-5.2,3.4-5.2,7c0,3.5,1.3,7.1,5.3,7.1c2.8,0,3.8-1.8,4.3-3.2H141z"/>
			<path class="st6" d="M153.8,53.8c0.5,2.1,1.9,3.1,4.4,3.1c2.5,0,3.5-1.1,3.5-2.6c0-1.7-0.9-2.5-4.4-3.4c-5-1.2-6.4-3-6.4-5.6
				c0-3.2,2.4-5.5,6.9-5.5c5,0,7,2.7,7.2,5.5h-3.7c-0.3-1.4-1.1-2.7-3.7-2.7c-1.9,0-3.1,0.8-3.1,2.4c0,1.5,0.9,2.1,4.1,2.9
				c5.6,1.3,6.7,3.4,6.7,6.1c0,3.4-2.6,5.8-7.5,5.8c-4.9,0-7.3-2.5-7.8-5.8H153.8z"/>
			<path class="st6" d="M172,38.9v7.9c0.7-1,1.9-2.2,4.2-2.2c2.6,0,4.8,1.5,4.8,5.5v9.2h-3.5v-8.7c0-2.1-0.8-3.2-2.6-3.2
				c-2.3,0-3,1.7-3,4.2v7.7h-3.5V38.9H172z"/>
			<path class="st6" d="M196.4,55.9c0,1.3,0.1,3.2,0.2,3.5h-3.3c-0.1-0.3-0.2-1-0.2-1.6c-0.5,0.9-1.6,1.9-4.2,1.9
				c-3.4,0-4.9-2.3-4.9-4.5c0-3.3,2.6-4.8,6.8-4.8c0.8,0,1.7,0,2.2,0v-1c0-1.1-0.4-2.3-2.5-2.3c-1.9,0-2.3,0.9-2.5,1.9h-3.3
				c0.2-2.4,1.7-4.5,6-4.5c3.7,0,5.8,1.5,5.8,4.9V55.9z M193,52.7c-0.4,0-1.3,0-1.9,0c-2.6,0-3.7,0.8-3.7,2.4c0,1.2,0.8,2.1,2.3,2.1
				c2.8,0,3.2-2,3.2-4.1V52.7z"/>
			<path class="st6" d="M200.3,48.9c0-1.6,0-2.8,0-3.9h3.4c0,0.4,0.1,1.7,0.1,2.7c0.7-1.7,2.3-3,4.7-3v3.4c-2.9,0-4.7,1-4.7,4.9v6.5
				h-3.5V48.9z"/>
			<path class="st6" d="M214.4,58v7h-3.5V48.5c0-1.2,0-2.3,0-3.5h3.4c0.1,0.4,0.1,1.3,0.1,2c0.7-1.2,2-2.3,4.4-2.3
				c3.3,0,5.7,2.7,5.7,7.2c0,5.1-2.8,7.9-6.3,7.9C216.1,59.8,214.9,58.9,214.4,58z M220.9,52c0-2.8-1.2-4.5-3.3-4.5
				c-2.5,0-3.4,1.6-3.4,4.7c0,3,0.8,4.7,3.3,4.7C219.8,57,220.9,55.1,220.9,52z"/>
		</g>
	</g>
</g>
</svg>
