<?xml version="1.0" encoding="utf-8"?>
<!-- Generator: Adobe Illustrator 26.0.1, SVG Export Plug-In . SVG Version: 6.00 Build 0)  -->
<svg version="1.1" id="Layer_1" xmlns="http://www.w3.org/2000/svg" xmlns:xlink="http://www.w3.org/1999/xlink" x="0px" y="0px"
	 viewBox="0 0 300 100" style="enable-background:new 0 0 300 100;" xml:space="preserve">
<style type="text/css">
	.st0{fill:#A079DB;}
	.st1{fill:#280068;}
	.st2{fill:#390090;}
	.st3{fill:#AA81E9;}
	.st4{fill:#30007A;}
	.st5{fill:#584279;}
	.st6{fill:#795BA5;}
	.st7{fill:#FEFEFE;}
	.st8{fill:#A77DE4;}
	.st9{fill:#FCFCFD;}
	.st10{fill:#2E008B;}
	.st11{fill:#30008B;}
	.st12{fill:#34008D;}
	.st13{fill:#33008C;}
	.st14{fill:#280087;}
	.st15{fill:#290087;}
	.st16{fill:#2F008B;}
	.st17{fill:#2B0089;}
	.st18{fill:#32008D;}
	.st19{fill:#210063;}
	.st20{fill:#380090;}
	.st21{fill:#FFFFFF;}
</style>
<path d="M266.6,74.4H58.4c-4.9,0-8.9-4-8.9-8.9V34.5c0-4.9,4-8.9,8.9-8.9h208.2c4.9,0,8.9,4,8.9,8.9v31.1
	C275.5,70.5,271.5,74.4,266.6,74.4z"/>
<g>
	<path class="st0" d="M24.5,36.2c0-0.1,0-0.1,0-0.2c0.1-2.2,1.5-3.4,3.2-4.4c7.1-4.1,14.2-8.2,21.3-12.3c0.7-0.4,1.5-0.6,2.3-0.6
		c0.7,0.1,1.5,0.1,2.2,0c0.9-0.1,1.7,0.2,2.5,0.6c7.1,4.1,14.3,8.2,21.4,12.3c1,0.6,2,1.2,2.4,2.4c0,0.6-0.4,0.8-0.8,1.1
		c-2.4,1.4-4.8,2.8-7.3,4.2c-0.4,0.2-0.7,0.4-1.2,0.3c-0.5-0.2-0.8-0.7-1.1-1.1c-4.5-6.3-10.7-9.3-18.4-8.8
		c-9.2,0.6-17.3,8.2-18.5,17.4c-0.5,4.1,0.1,7.9,1.8,11.6c0.2,0.5,0.5,0.9,0.4,1.5c-0.1,0.5-0.6,0.8-1,1c-2.4,1.4-4.9,2.8-7.3,4.2
		c-0.4,0.2-0.9,0.4-1.4,0.2c-0.6-0.4-0.3-1.1-0.6-1.6c0-0.1,0-0.1,0-0.2c0.3-0.4,0.2-0.8,0.2-1.2c0-8.4,0-16.8,0-25.3
		C24.7,37,24.8,36.5,24.5,36.2z"/>
	<path class="st1" d="M25.2,65.6c0.3,0,0.5-0.1,0.7-0.2c2.9-1.7,5.8-3.4,8.7-5c0.5,0,0.7,0.4,1,0.7c3.6,5.4,8.6,8.6,14.9,9.2
		c7.5,0.7,13.8-1.9,18.5-8c0.5-0.7,0.8-1.5,1.6-1.9c0.5-0.2,0.9,0.1,1.3,0.3c2.3,1.4,4.7,2.7,7,4.1c0.4,0.2,0.9,0.5,1,1
		c0.1,1.1-0.7,1.6-1.4,2.1c-1.5,1-3.1,1.9-4.7,2.8c-5.5,3.2-11,6.3-16.5,9.5c-1.2,0.7-2.3,1.3-3.6,1.4c-0.8,0-1.7,0-2.5,0
		c-1.5-0.2-2.6-1-3.9-1.7c-6.7-3.9-13.4-7.7-20-11.6c-0.7-0.4-1.3-0.9-1.8-1.5C25.2,66.4,24.9,66,25.2,65.6z"/>
	<path class="st2" d="M79.6,65.8c-1.7-1.3-3.6-2.2-5.4-3.3c-1.2-0.7-2.4-1.4-3.6-2c-0.5,0.1-0.9-0.2-1.4-0.4
		c-2.1-1.2-4.3-2.5-6.4-3.7c-0.5-0.3-1.1-0.5-1.6-0.7c-2.5-1.7-5.2-3.1-7.7-4.6c-0.4-0.3-0.9-0.4-1.1-0.9c0-0.5,0.4-0.7,0.8-0.9
		c2.7-1.5,5.3-3.2,8-4.6c2.6-1.5,5.2-3,7.8-4.5c0.5-0.3,0.9-0.6,1.5-0.5c2.8-1.6,5.7-3.3,8.5-4.9c0.2-0.1,0.4-0.2,0.5-0.5
		c0.5-0.2,0.5,0.2,0.6,0.5c0.2,0.4,0.1,0.9,0.3,1.4c0,0.1,0,0.3,0,0.4c-0.2,0.4-0.1,0.8-0.1,1.1c0,8.8,0,17.6,0,26.3
		C80.2,64.5,80.7,65.4,79.6,65.8z"/>
	<path class="st3" d="M24.5,36.2c0.5,0.1,0.4,0.6,0.4,0.9c0,8.6,0,17.2,0,25.8c0,0.4,0.1,0.8-0.4,0.9c0-0.1,0-0.1,0-0.2
		c0.2-0.3,0.1-0.6,0.1-0.9c0-8.5,0-16.9,0-25.4c0-0.3,0.1-0.6-0.1-0.9C24.5,36.3,24.5,36.2,24.5,36.2z"/>
	<path class="st4" d="M80.5,64c-0.1,0-0.1,0-0.2,0.1c0-9,0-18,0-26.9c0-0.3,0-0.6,0.2-0.8C80.5,45.6,80.5,54.8,80.5,64z"/>
	<path class="st5" d="M24.5,36.4c0.4,0.3,0.2,0.6,0.2,1c0,8.4,0,16.9,0,25.3c0,0.3,0.1,0.7-0.2,1C24.5,54.5,24.5,45.5,24.5,36.4z"/>
	<path class="st6" d="M53.4,18.6c0,0,0.1,0.1,0.1,0.2c-0.7,0.2-1.3,0.2-2,0c0-0.1,0-0.1,0-0.2C52.2,18.6,52.8,18.6,53.4,18.6z"/>
	<path class="st7" d="M61.4,55.4c0.2-0.1,0.3-0.2,0.6-0.1c2.9,1.7,5.9,3.3,8.7,5.1c-3.5,5.8-8.6,9.2-15.3,10.1
		c-5.6,0.8-10.7-0.7-15.3-4c-2.3-1.7-4-3.9-5.6-6.3c-1.4-2.7-2.3-5.5-2.6-8.6c-1-10.1,6.3-20,16.3-22.1c9-1.8,17.2,1.8,22.3,9.8
		c-3,1.8-6,3.7-9.2,5.2c-0.5-0.1-0.7-0.5-0.9-0.8c-3.1-3.6-7.4-4.8-11.6-3.1c-4.8,1.9-7.3,7.5-5.6,12.3c0.2,0.6,0.5,1.2,0.7,1.8
		c1.5,2.1,3.3,3.8,5.9,4.5c0.6,0.2,1.3,0.3,1.9,0.3c0.5,0.1,1.1,0.1,1.6,0c2.6-0.1,4.7-1.4,6.5-3.3C60.4,56.2,60.7,55.5,61.4,55.4z"
		/>
	<path class="st8" d="M51.5,18.7c0.7,0,1.3,0,2,0c0.1,0,0.1,0,0.2,0.1c-0.8,0.3-1.5,0.3-2.3,0C51.4,18.7,51.4,18.7,51.5,18.7z"/>
	<path class="st0" d="M43.8,55.2c-3.5-6.6,0-14.1,7.2-15.4c4.1-0.8,8.9,1.5,10.5,4.9c-2.2,1.5-4.7,2.7-7,4.1
		c-0.6,0.4-1.2,0.8-1.9,1.1c-0.1,0.4-0.4,0.6-0.7,0.8c-2.4,1.4-4.7,2.7-7.1,4.1C44.4,55.1,44.1,55.2,43.8,55.2z"/>
	<path class="st1" d="M43.8,55.2c0.1-0.1,0.2-0.3,0.3-0.4c2.8-1.6,5.7-3.2,8.5-4.9c2.7,1.5,5.3,3,8,4.6c0.3,0.2,0.8,0.4,0.8,0.9
		c-1.8,2.9-4.4,4.5-7.8,4.8c-0.6-0.1-1.3-0.1-1.9,0c-2.7-0.2-4.9-1.2-6.7-3.3C44.6,56.4,44.1,55.9,43.8,55.2z"/>
	<path class="st9" d="M73.3,48.6c-0.4,0.8-0.1,1.7-0.2,2.5c0,0.3,0.3,0.4,0.5,0.4c0.5,0,1,0,1.6,0c0.6,0,0.9,0,0.9,0.8
		c0,0.7-0.3,0.8-0.9,0.8c-0.6,0-1.1,0-1.7,0c-0.1,0.1-0.1,0.1-0.2,0c-0.4,0.7-0.2,1.5-0.2,2.2c0,0.7-0.3,0.7-0.8,0.7
		c-0.6,0-0.7-0.2-0.7-0.7c0-0.7,0.3-1.5-0.2-2.2c-0.1,0.1-0.1,0.1-0.2,0c-0.7,0-1.4,0-2.1,0c-0.1,0.1-0.1,0.1-0.2,0
		c-0.4,0.3-0.1,0.8-0.2,1.1c-0.3,0.6,0.7,1.8-0.8,1.8c-1.5,0-0.4-1.2-0.7-1.8c-0.2-0.3,0.2-0.8-0.2-1.1c-0.1,0.1-0.2,0.1-0.2,0
		c-0.6,0-1.1-0.1-1.7,0c-0.6,0-0.9,0-0.9-0.8c0-0.8,0.4-0.7,0.9-0.7c0.6,0,1.3,0.2,1.9-0.1c-0.2-0.9,0.2-1.9-0.3-2.7
		c-0.4,0-0.7,0-1.1,0c-1.5,0-1.5,0-1.4-1.6c0.9-0.3,1.8-0.2,2.7-0.1c0.4-0.9,0-1.9,0.2-2.9c0.4-0.3,0.8-0.2,1.2,0
		c0.5,0.5,0.1,1.1,0.3,1.7c0.1,0.4-0.2,0.9,0.2,1.2c0.8-0.2,1.7-0.2,2.5,0c0.4-0.6,0.1-1.3,0.2-1.9c0.1-0.4-0.2-0.8,0.3-1
		c0.3-0.2,0.6-0.2,0.9,0c0.5,0.4,0.2,1,0.3,1.5c0.1,0.5-0.2,1,0.2,1.5c0.8-0.2,1.6-0.2,2.5,0c0.6,1.2,0.4,1.6-0.8,1.6
		c-0.5,0-1,0-1.4,0C73.5,48.7,73.4,48.7,73.3,48.6z"/>
	<path class="st10" d="M66.8,48.5c0.2,0,0.4,0,0.4,0.2c0,0.8,0.2,1.7-0.1,2.5c-0.8,0-1.6,0-2.4,0C66.8,50.8,66.8,50.8,66.8,48.5z"/>
	<path class="st11" d="M73.3,48.6c0.1,0,0.1,0,0.2,0c0,2.3,0,2.3,2.2,2.6c0,0,0,0.1-0.1,0.1C73.4,51.5,73.4,51.5,73.3,48.6z"/>
	<path class="st11" d="M66.8,52.9c0.1,0,0.1,0,0.2,0c0,0.9,0,1.7,0,2.6c-0.1,0-0.1,0-0.2,0C66.8,54.7,66.8,53.8,66.8,52.9z"/>
	<path class="st12" d="M68.9,52.9c0.1,0,0.1,0,0.2,0c0,0.9,0,1.7,0,2.6c-0.1,0-0.1,0-0.2,0C68.9,54.7,68.9,53.8,68.9,52.9z"/>
	<path class="st11" d="M71.2,52.9c0.1,0,0.1,0,0.2,0c0,0.9,0,1.7,0,2.6c-0.1,0-0.1,0-0.2,0C71.2,54.7,71.2,53.8,71.2,52.9z"/>
	<path class="st13" d="M73.3,53c0.1,0,0.1,0,0.2,0c0,0.9,0,1.7,0,2.6c-0.1,0-0.1,0-0.2,0C73.3,54.7,73.3,53.8,73.3,53z"/>
	<path class="st11" d="M66.8,46.6c0-0.8,0-1.6,0-2.4c0.1,0,0.1,0,0.2,0c0,0.8,0,1.6,0,2.4C67,46.7,66.9,46.7,66.8,46.6z"/>
	<path class="st14" d="M66.8,46.6c0.1,0,0.1,0,0.2,0c0,0.1,0,0.1,0,0.2c-0.9,0.2-1.8,0.1-2.7,0.1C65.1,46.3,66,46.8,66.8,46.6z"/>
	<path class="st14" d="M75.8,46.9c-0.8,0.1-1.6,0.1-2.5,0c0-0.1,0-0.1,0-0.2c0.1-0.1,0.1-0.1,0.2,0C74.3,46.8,75.1,46.4,75.8,46.9z"
		/>
	<path class="st15" d="M71.5,46.9c-0.8,0.1-1.7,0.1-2.5,0c0.7-0.5,1.5-0.1,2.3-0.2c0.1-0.1,0.1-0.1,0.2,0
		C71.4,46.7,71.5,46.8,71.5,46.9z"/>
	<path class="st13" d="M73.6,46.6c-0.1,0-0.1,0-0.2,0c0-0.7,0-1.4,0-2.2c0.1,0,0.1,0,0.2,0C73.6,45.2,73.6,45.9,73.6,46.6z"/>
	<path class="st11" d="M71.4,46.7c-0.1,0-0.1,0-0.2,0c0-0.7,0-1.4,0-2.2c0.1,0,0.1,0,0.2,0C71.4,45.2,71.4,45.9,71.4,46.7z"/>
	<path class="st16" d="M68.5,44c-0.4,0-0.8,0-1.2,0C67.7,43.7,68.1,43.5,68.5,44z"/>
	<path class="st16" d="M72.9,44c-0.3,0.1-0.6,0.1-0.9,0C72.2,43.6,72.6,43.6,72.9,44z"/>
	<path class="st17" d="M64,48.3c-0.2-0.3-0.1-0.6-0.1-0.9C64.2,47.7,64.1,47.9,64,48.3z"/>
	<path class="st18" d="M76.4,47.4c0,0.3,0,0.6,0,0.9c0,0-0.1,0-0.1,0c0-0.3,0-0.5,0-0.8C76.3,47.4,76.4,47.4,76.4,47.4z"/>
	<path class="st17" d="M64.1,51.8c0,0.3,0,0.5,0,0.8c0,0-0.1,0-0.1,0C64,52.3,64,52.1,64.1,51.8C64,51.8,64.1,51.8,64.1,51.8z"/>
	<path class="st18" d="M76.4,51.6c0.1,0.5,0.2,0.8,0,1.1C76.2,52.4,76.3,52.1,76.4,51.6z"/>
	<path class="st19" d="M51.8,60.3c0.6-0.3,1.3-0.3,1.9,0C53,60.4,52.4,60.4,51.8,60.3z"/>
	<path class="st20" d="M68.7,49.8c0-1.3,0-1.3,1.7-1.3c1.3,0,1.3,0,1.3,1.7c0,1.2,0,1.1-1.8,1.3C68.3,51.6,68.8,50.6,68.7,49.8z"/>
</g>
<g>
	<g>
		<path class="st21" d="M128.4,52.8c-0.9,4-3.9,6.9-9.3,6.9c-6.9,0-10.2-5-10.2-11.3c0-6,3.4-11.5,10.4-11.5c5.7,0,8.5,3.3,9.1,7
			h-4.2c-0.6-1.9-1.9-3.7-5.1-3.7c-4.3,0-6,3.9-6,8c0,3.9,1.5,8.1,6.1,8.1c3.2,0,4.4-2,4.9-3.6H128.4z"/>
		<path class="st21" d="M143,53c0.5,2.4,2.2,3.5,5,3.5c2.9,0,4-1.2,4-3c0-1.9-1.1-2.9-5.1-3.8c-5.7-1.4-7.3-3.4-7.3-6.4
			c0-3.7,2.7-6.3,7.9-6.3c5.7,0,7.9,3.1,8.3,6.2h-4.2c-0.3-1.6-1.2-3.1-4.2-3.1c-2.2,0-3.5,0.9-3.5,2.7c0,1.7,1,2.4,4.7,3.3
			c6.4,1.5,7.7,3.9,7.7,7c0,3.9-2.9,6.7-8.6,6.7c-5.6,0-8.4-2.9-8.9-6.7H143z"/>
		<path class="st21" d="M163.8,36v9.1c0.8-1.2,2.1-2.5,4.9-2.5c2.9,0,5.5,1.7,5.5,6.3v10.5h-4v-9.9c0-2.4-0.9-3.6-3-3.6
			c-2.7,0-3.4,1.9-3.4,4.7v8.8h-4V36H163.8z"/>
		<path class="st21" d="M191.7,55.4c0,1.5,0.1,3.6,0.2,4h-3.8c-0.1-0.3-0.2-1.2-0.2-1.8c-0.6,1-1.8,2.2-4.8,2.2
			c-3.9,0-5.6-2.6-5.6-5.1c0-3.7,3-5.4,7.8-5.4c0.9,0,1.9,0,2.5,0v-1.1c0-1.3-0.4-2.6-2.9-2.6c-2.2,0-2.6,1-2.9,2.2h-3.8
			c0.2-2.7,1.9-5.2,6.8-5.1c4.3,0,6.6,1.7,6.6,5.6V55.4z M187.8,51.8c-0.4,0-1.4,0-2.1,0c-2.9,0-4.2,0.9-4.2,2.7
			c0,1.4,0.9,2.4,2.6,2.4c3.3,0,3.7-2.2,3.7-4.7V51.8z"/>
		<path class="st21" d="M196.1,47.4c0-1.9,0-3.3,0-4.5h3.9c0.1,0.4,0.1,1.9,0.1,3c0.8-2,2.6-3.4,5.4-3.4v3.8c-3.3,0-5.4,1.2-5.4,5.6
			v7.4h-4V47.4z"/>
		<path class="st21" d="M212.2,57.8v8h-4V47c0-1.3,0-2.7,0-4h3.9c0.1,0.5,0.1,1.5,0.1,2.2c0.8-1.4,2.3-2.6,5-2.6
			c3.7,0,6.6,3.1,6.6,8.2c0,5.8-3.2,9-7.2,9C214.2,59.8,212.9,58.9,212.2,57.8z M219.7,50.9c0-3.2-1.3-5.1-3.7-5.1
			c-2.9,0-3.9,1.8-3.9,5.4c0,3.4,0.9,5.4,3.7,5.4C218.4,56.6,219.7,54.5,219.7,50.9z"/>
	</g>
</g>
</svg>
