<?xml version="1.0" encoding="utf-8"?>
<!-- Generator: Adobe Illustrator 26.0.1, SVG Export Plug-In . SVG Version: 6.00 Build 0)  -->
<svg version="1.1" id="Layer_1" xmlns="http://www.w3.org/2000/svg" xmlns:xlink="http://www.w3.org/1999/xlink" x="0px" y="0px"
	 viewBox="0 0 493.4 164.5" style="enable-background:new 0 0 493.4 164.5;" xml:space="preserve">
<style type="text/css">
	.st0{fill:#303030;}
	.st1{fill:#FFFFFF;}
	.st2{fill:#3770A0;}
	.st3{fill:#FEFEFE;}
	.st4{fill:#FED142;}
	.st5{fill:#3771A0;}
</style>
<g>
	<path class="st0" d="M427.8,124.3H108.7c-4.9,0-8.9-4-8.9-8.9V49c0-4.9,4-8.9,8.9-8.9h319.1c4.9,0,8.9,4,8.9,8.9v66.4
		C436.7,120.3,432.7,124.3,427.8,124.3z"/>
</g>
<g>
	<g>
		<g>
			<path class="st1" d="M204.6,65.5h5.6v34.3h-5.6V65.5z M207.3,81.1h11c0.9,0,1.7-0.2,2.4-0.6s1.2-1,1.6-1.8
				c0.4-0.8,0.6-1.7,0.6-2.7c0-1-0.2-1.9-0.6-2.7c-0.4-0.8-0.9-1.4-1.6-1.8c-0.7-0.4-1.5-0.6-2.4-0.6h-11v-5.4h10.8
				c2.1,0,3.9,0.4,5.5,1.3c1.6,0.9,2.8,2.1,3.7,3.7s1.3,3.4,1.3,5.5s-0.4,3.9-1.3,5.5c-0.9,1.6-2.1,2.8-3.7,3.7
				c-1.6,0.9-3.4,1.3-5.5,1.3h-10.8V81.1z"/>
			<path class="st1" d="M231.5,75.3h5.5l7.9,21.3l-3.4,5.2L231.5,75.3z M253.7,75.3L243,105.5c-0.4,1.1-0.9,2-1.5,2.7
				c-0.6,0.7-1.4,1.1-2.3,1.4c-0.9,0.3-2,0.4-3.3,0.4h-1.2v-5.4h1.2c0.8,0,1.4-0.2,1.9-0.5c0.5-0.3,0.9-0.9,1.2-1.7l9-27H253.7z"/>
			<path class="st1" d="M255.5,75.3H267v4.9h-11.5V75.3z M259.5,98.2c-1-1.1-1.4-2.7-1.4-4.8V68.2h5.6v24.4c0,0.6,0.1,1.1,0.4,1.4
				c0.2,0.3,0.6,0.5,1,0.5h2v5.4h-3C262,99.9,260.5,99.3,259.5,98.2z"/>
			<path class="st1" d="M273.2,65.5h5.6v34.3h-5.6V65.5z M287.7,84.9c0-1.5-0.4-2.6-1.2-3.4c-0.8-0.8-1.9-1.2-3.3-1.2
				c-1.4,0-2.5,0.4-3.2,1.1s-1.1,1.8-1.1,3.1l-0.5-5.1c0.7-1.5,1.7-2.6,2.8-3.4c1.1-0.8,2.4-1.2,4-1.2c2.6,0,4.6,0.9,6.1,2.6
				c1.4,1.7,2.2,4.2,2.2,7.4v14.8h-5.6V84.9z"/>
			<path class="st1" d="M304.2,98.8c-1.5-0.8-2.7-2-3.5-3.6c-0.8-1.6-1.2-3.5-1.2-5.8v-4c0-2.2,0.4-4.1,1.2-5.7
				c0.8-1.6,2-2.8,3.5-3.6c1.5-0.8,3.4-1.2,5.6-1.2c2.2,0,4,0.4,5.6,1.2c1.5,0.8,2.7,2,3.5,3.6c0.8,1.6,1.2,3.5,1.2,5.7v4.1
				c0,2.2-0.4,4.1-1.2,5.7c-0.8,1.6-2,2.8-3.5,3.6c-1.5,0.8-3.4,1.2-5.6,1.2C307.6,100.1,305.7,99.7,304.2,98.8z M313.2,93.3
				c0.8-0.9,1.2-2.2,1.2-3.8v-4.1c0-1.6-0.4-2.9-1.2-3.8c-0.8-0.9-2-1.3-3.5-1.3c-1.5,0-2.6,0.4-3.5,1.3s-1.2,2.2-1.2,3.8v4.1
				c0,1.6,0.4,2.9,1.2,3.8s2,1.4,3.5,1.4C311.2,94.7,312.4,94.2,313.2,93.3z"/>
			<path class="st1" d="M326.4,75.3h5.6v24.5h-5.6V75.3z M340.9,84.9c0-1.5-0.4-2.6-1.2-3.4s-1.9-1.2-3.3-1.2
				c-1.4,0-2.5,0.4-3.2,1.1s-1.1,1.8-1.1,3.2l-0.5-5.1c0.7-1.5,1.7-2.7,2.8-3.4c1.1-0.8,2.4-1.2,4-1.2c2.6,0,4.6,0.9,6.1,2.6
				c1.4,1.7,2.2,4.2,2.2,7.4v14.8h-5.6V84.9z"/>
		</g>
	</g>
</g>
<path class="st2" d="M158.3,88.4c-0.3,2.1-0.6,4.1-1.1,6.2c-0.9,3.8-2.2,7.5-3.9,11.1c-0.1,0.2-0.2,0.4-0.2,0.5
	c-1,1.9-2.1,3.8-3.2,5.6c-1.8,2.6-3.7,5.1-6,7.4c-0.9,0.9-1.8,1.8-2.7,2.7c-0.3,0.6-0.8,0.9-1.3,1.3c-0.8,0.7-1.7,1.4-2.5,2
	c-1.4,1-2.7,2-4.2,2.9c-4.3,2.6-8.8,4.6-13.7,5.9c-0.1,0-0.2,0.1-0.4,0.1c-3.1,0.8-6.2,1.4-9.3,1.6c-1.6,0.1-3.2,0.2-4.8,0.3
	c-0.3,0-0.6,0-0.9,0c-0.2,0-0.4-0.1-0.6-0.1c-4.8,0-9.5-0.9-14.1-2.3c-4.4-1.3-8.5-3.2-12.4-5.7c-2.9-1.8-5.6-3.8-8.1-6.1
	c-4.4-4-7.9-8.6-10.8-13.8c-1.3-2.3-2.3-4.7-3.3-7.2c-1.4-3.7-2.3-7.4-2.8-11.3c-0.3-2-0.4-4-0.4-6.1c-0.2-4.4,0.3-8.8,1.3-13.1
	c0.4-2,1-4,1.7-6c0.1-0.3,0.1-0.6,0.4-0.8c1.1-2.6,2.2-5.2,3.6-7.6C63,48.3,69,42,76.5,37.2c0.2-0.1,0.4-0.3,0.5-0.4
	c1.9-1.1,3.9-2.2,5.9-3.1c2.4-1.1,4.9-1.9,7.4-2.8c0.2-0.2,0.4-0.3,0.7-0.4c2.4-0.6,4.9-1.1,7.3-1.4c0.9-0.1,1.7-0.2,2.6-0.2
	c1,0,2,0,3.1-0.1c0.8-0.1,1.5-0.1,2.3,0c1,0.2,2,0.1,3,0.2c0.1,0,0.2,0,0.3,0.1c2.4,0.3,4.8,0.6,7.1,1.1c5.7,1.3,11,3.4,15.9,6.4
	c0.1,0.1,0.2,0.1,0.4,0.2c0.9,0.3,1.7,0.9,2.5,1.5c2.9,2,5.7,4.3,8.1,6.8c2.2,2.3,4.2,4.7,5.9,7.3c0.2,0.2,0.3,0.5,0.3,0.7
	c1.4,2.3,2.8,4.7,3.9,7.1c2.7,6,4.3,12.2,4.7,18.7c0.1,2.1,0.1,4.1,0.1,6.1c0.3,0.7,0.1,1.5,0,2.2C158.5,87.6,158.4,88,158.3,88.4z"
	/>
<path class="st3" d="M90.2,63.8c4.2,0,8.4,0,12.6,0c0.6,0,0.8-0.2,0.7-0.7c-0.1-0.6,0.2-1.3-0.1-1.7c-0.4-0.4-1.1-0.1-1.7-0.1
	c-5.1,0-10.3,0-15.4,0c-0.6,0-0.7-0.1-0.7-0.7c0-2.5,0.1-4.9,0-7.4c-0.1-2.1,0.8-3.7,2.5-5c1.7-1.4,3.7-2.1,5.8-2.6
	c6.3-1.3,12.7-1.4,19,0.1c2.2,0.5,4.3,1.5,6,3c1.5,1.4,2.5,3.2,2.5,5.3c0,5.7,0.1,11.5,0,17.2c-0.1,4.7-2.9,7.8-7.5,8.7
	c-0.9,0.2-1.8,0.3-2.8,0.3c-5.9,0-11.7,0-17.6,0c-2.9,0-5.5,0.9-7.5,3.1c-1.7,2-2.4,4.3-2.5,6.8c-0.1,2.9,0,5.8,0,8.6
	c0,0.6-0.2,0.7-0.7,0.7c-1.7,0-3.4,0-5.1,0c-3.1,0.1-5.5-1.3-7.3-3.6c-1.8-2.3-2.6-4.9-3.1-7.7c-0.9-5.1-0.9-10.2,0.4-15.2
	c0.8-2.9,2.1-5.5,4.5-7.3c1.7-1.3,3.7-2,5.9-2C82.1,63.8,86.2,63.8,90.2,63.8C90.2,63.8,90.2,63.8,90.2,63.8z"/>
<path class="st4" d="M116.6,99.9c-4,0-8,0-12,0c-0.6,0-0.8,0.2-0.7,0.8c0.1,0.6-0.2,1.3,0.1,1.7c0.4,0.4,1.1,0.1,1.7,0.1
	c5.1,0,10.3,0,15.4,0c0.6,0,0.7,0.2,0.7,0.8c0,2.4-0.1,4.8,0,7.2c0.1,2.4-1,4.2-2.9,5.5c-1.9,1.4-4.2,2.1-6.5,2.5
	c-5.5,1-10.9,1-16.4,0c-2.6-0.5-5-1.3-7.1-3c-1.9-1.6-2.9-3.6-2.9-6.2c0.1-5.4,0-10.9,0-16.3c0-3.3,1.2-6,4.1-7.8
	c1.8-1.1,3.7-1.5,5.7-1.5c5.8,0,11.6,0,17.4,0c1.8,0,3.5-0.2,5.2-1c2.9-1.3,4.4-3.7,5.2-6.7c0.3-1.1,0.4-2.2,0.4-3.4
	c0-2.5,0-5.1,0-7.6c0-0.3-0.1-0.6,0.4-0.6c2.2,0,4.4-0.1,6.6,0.1c3.3,0.3,5.5,2.3,7.1,5c1.4,2.4,2.1,5.1,2.4,7.8
	c0.5,4.5,0.5,8.9-0.6,13.4c-0.7,2.9-2,5.5-4.3,7.4c-2,1.6-4.3,2.4-6.8,2.2c-0.2,0-0.4,0-0.7,0C124.3,99.9,120.4,99.9,116.6,99.9z"/>
<path class="st5" d="M96.5,53.5c0,1.7-1.4,3.1-3.2,3.1c-1.8,0-3.2-1.5-3.2-3.2c0-1.8,1.5-3.1,3.3-3.1C95.1,50.3,96.5,51.8,96.5,53.5
	z"/>
<path class="st5" d="M118,109.5c0,1.8-1.4,3.2-3.2,3.1c-1.7,0-3.1-1.4-3.1-3.2c0-1.8,1.5-3.2,3.2-3.2
	C116.6,106.3,118,107.8,118,109.5z"/>
</svg>
